<?xml version="1.0" encoding="UTF-8"?>
<!DOCTYPE svg PUBLIC "-//W3C//DTD SVG 1.1//EN" "http://www.w3.org/Graphics/SVG/1.1/DTD/svg11.dtd">
<svg xmlns="http://www.w3.org/2000/svg" version="1.1" width="600px" height="300px" style="shape-rendering:geometricPrecision; text-rendering:geometricPrecision; image-rendering:optimizeQuality; fill-rule:evenodd; clip-rule:evenodd" xmlns:xlink="http://www.w3.org/1999/xlink">
<g><path style="opacity:0.984" fill="#4e2e45" d="M 410.5,102.5 C 404.984,105.343 401.317,109.677 399.5,115.5C 397.801,115.66 396.134,115.494 394.5,115C 397.358,111.642 400.025,108.142 402.5,104.5C 400.35,101.849 398.017,99.3494 395.5,97C 394.167,96.3333 392.833,96.3333 391.5,97C 385,104.167 378.5,111.333 372,118.5C 371.333,119.167 371.333,119.833 372,120.5C 377.687,116.531 378.02,117.198 373,122.5C 372.107,121.289 371.274,121.289 370.5,122.5C 359.322,137.512 349.655,153.512 341.5,170.5C 340.209,166.955 340.209,163.455 341.5,160C 340.552,159.517 339.552,159.351 338.5,159.5C 338.363,152.672 338.363,146.005 338.5,139.5C 336.949,131.526 335.615,123.526 334.5,115.5C 335.966,111.326 337.3,106.992 338.5,102.5C 336.392,101.056 334.059,100.39 331.5,100.5C 331.5,99.8333 331.167,99.5 330.5,99.5C 329.108,94.1553 327.608,88.8219 326,83.5C 324.644,82.6198 323.144,82.2865 321.5,82.5C 321.785,84.288 321.452,85.9547 320.5,87.5C 319.923,83.1794 317.923,79.6794 314.5,77C 309.347,74.392 304.013,72.892 298.5,72.5C 301.369,60.6905 304.702,49.0239 308.5,37.5C 323.1,32.4512 336.6,25.4512 349,16.5C 375.593,23.6058 402.093,30.9392 428.5,38.5C 422.494,59.8624 416.494,81.1957 410.5,102.5 Z"/></g>
<g><path style="opacity:0.981" fill="#1f4e50" d="M 267.5,173.5 C 250.652,175.57 234.152,179.236 218,184.5C 220.602,149.838 223.436,115.171 226.5,80.5C 224.435,80.5172 222.435,80.8505 220.5,81.5C 223.167,71.1667 225.833,60.8333 228.5,50.5C 240.901,50.6982 253.234,49.8648 265.5,48C 277.519,45.4944 289.519,42.9944 301.5,40.5C 290.009,84.797 278.676,129.13 267.5,173.5 Z"/></g>
<g><path style="opacity:0.944" fill="#fefa5f" d="M 452.5,66.5 C 456.255,66.3368 458.755,68.0034 460,71.5C 466.767,67.6713 473.6,67.6713 480.5,71.5C 478.632,75.5161 479.632,78.5161 483.5,80.5C 486.493,79.2185 488.993,79.8852 491,82.5C 496.872,111.528 502.872,140.528 509,169.5C 513.178,186.05 519.678,201.55 528.5,216C 527.475,218.071 526.642,220.238 526,222.5C 525.586,222.043 525.086,221.709 524.5,221.5C 523.376,223.369 522.543,225.369 522,227.5C 516.758,222.599 513.758,216.599 513,209.5C 511.817,208.269 510.651,208.269 509.5,209.5C 511.533,213.768 513.033,218.101 514,222.5C 510.469,224.849 506.635,226.515 502.5,227.5C 500.813,227.24 499.313,226.573 498,225.5C 493.167,215.167 488.333,204.833 483.5,194.5C 483.709,193.914 484.043,193.414 484.5,193C 477.213,172.35 471.879,151.184 468.5,129.5C 466.881,132.188 465.547,135.021 464.5,138C 465.167,139 465.833,140 466.5,141C 464.775,140.591 463.108,140.758 461.5,141.5C 451.501,167.968 437.835,192.801 420.5,216C 414.645,216.825 413.311,214.825 416.5,210C 414.394,212.106 412.061,214.439 409.5,217C 401.681,219.718 393.848,219.551 386,216.5C 384.743,216.15 384.409,215.483 385,214.5C 387.333,211.5 389.667,208.5 392,205.5C 392.497,203.19 392.663,200.857 392.5,198.5C 395.959,197.564 398.793,195.564 401,192.5C 406.842,182.817 412.176,172.817 417,162.5C 430.485,130.638 442.318,98.6381 452.5,66.5 Z M 457.5,74.5 C 456.863,77.456 456.363,80.456 456,83.5C 454.094,80.0632 454.594,77.0632 457.5,74.5 Z M 482.5,101.5 C 483.496,101.414 484.329,101.748 485,102.5C 486.327,115.574 485.161,116.24 481.5,104.5C 481.685,103.416 482.018,102.416 482.5,101.5 Z M 501.5,191.5 C 503.236,194.214 504.07,197.214 504,200.5C 502.396,197.753 501.562,194.753 501.5,191.5 Z M 485.5,193.5 C 486.077,192.227 486.743,192.227 487.5,193.5C 488.428,194.768 488.595,196.101 488,197.5C 487.392,195.934 486.558,194.6 485.5,193.5 Z M 517.5,213.5 C 518.5,213.5 519.5,213.5 520.5,213.5C 520.354,218.421 519.354,218.421 517.5,213.5 Z"/></g>
<g><path style="opacity:0.96" fill="#fcf85f" d="M 220.5,81.5 C 222.435,80.8505 224.435,80.5172 226.5,80.5C 223.436,115.171 220.602,149.838 218,184.5C 234.152,179.236 250.652,175.57 267.5,173.5C 272.414,172.293 277.414,171.626 282.5,171.5C 282.5,172.5 282.5,173.5 282.5,174.5C 276.734,175.121 271.067,176.121 265.5,177.5C 265.44,176.957 265.107,176.624 264.5,176.5C 254.205,178.763 243.871,180.93 233.5,183C 213.391,190.246 213.724,191.08 234.5,185.5C 235.894,185.621 237.228,185.954 238.5,186.5C 247.447,184.244 256.447,182.244 265.5,180.5C 270.264,178.247 274.931,178.247 279.5,180.5C 283.382,179.191 287.382,178.524 291.5,178.5C 297.198,178.981 302.864,179.648 308.5,180.5C 308.822,182.722 308.155,184.556 306.5,186C 300.419,188.771 294.086,190.771 287.5,192C 290.224,192.27 292.891,192.77 295.5,193.5C 296.5,192.833 297.5,192.167 298.5,191.5C 299.474,193.743 299.808,196.076 299.5,198.5C 293.134,199.675 286.8,201.008 280.5,202.5C 252.512,207.413 225.512,215.58 199.5,227C 197.098,227.814 194.765,227.647 192.5,226.5C 189.922,222.591 186.922,219.258 183.5,216.5C 183.5,215.833 183.5,215.167 183.5,214.5C 184.962,213.542 186.295,212.376 187.5,211C 188.793,210.51 190.127,210.343 191.5,210.5C 192.25,206.225 190.917,202.891 187.5,200.5C 186.883,200.389 186.383,200.056 186,199.5C 187.668,171.149 189.835,142.816 192.5,114.5C 193.5,114.5 194.5,114.5 195.5,114.5C 195.739,121.138 195.073,127.638 193.5,134C 194.793,134.49 196.127,134.657 197.5,134.5C 199.013,116.163 200.68,97.8297 202.5,79.5C 204.668,77.3672 206.334,74.8672 207.5,72C 210.68,70.9639 213.18,71.7972 215,74.5C 215.497,77.146 215.664,79.8127 215.5,82.5C 217.415,82.7845 219.081,82.4511 220.5,81.5 Z M 196.5,144.5 C 196.888,149.628 196.388,154.628 195,159.5C 194.5,159 194,158.5 193.5,158C 194.553,153.412 195.553,148.912 196.5,144.5 Z M 194.5,163.5 C 195.614,167.709 195.447,172.042 194,176.5C 193.466,172.141 193.632,167.808 194.5,163.5 Z"/></g>
<g><path style="opacity:0.94" fill="#fefa5f" d="M 91.5,72.5 C 93.0295,73.0668 94.5295,73.7334 96,74.5C 121.639,74.0838 147.472,73.4172 173.5,72.5C 177.012,74.7567 180.346,77.2567 183.5,80C 182.126,85.4168 179.459,90.0834 175.5,94C 172.289,95.1532 168.956,95.8198 165.5,96C 150.833,96.6667 136.167,97.3333 121.5,98C 121.043,98.414 120.709,98.914 120.5,99.5C 125.848,101.816 131.348,102.149 137,100.5C 140.059,100.481 142.893,101.147 145.5,102.5C 150.8,101.656 156.134,101.323 161.5,101.5C 161.5,102.5 161.5,103.5 161.5,104.5C 147.171,105.962 132.838,107.462 118.5,109C 117.167,116.333 115.833,123.667 114.5,131C 131.571,130.777 148.571,129.61 165.5,127.5C 167.756,128.421 168.756,130.088 168.5,132.5C 167.127,132.343 165.793,132.51 164.5,133C 168.754,134.314 173.087,135.147 177.5,135.5C 177.378,139.147 175.712,141.981 172.5,144C 164.135,147.592 155.468,150.259 146.5,152C 133.496,154.204 120.496,156.038 107.5,157.5C 104.696,165.246 101.696,172.912 98.5,180.5C 97.675,181.386 96.675,181.719 95.5,181.5C 95.9284,175.824 96.0951,170.157 96,164.5C 94.4201,172.804 93.4201,181.138 93,189.5C 119.277,185.017 145.777,183.184 172.5,184C 174.74,184.977 177.073,185.477 179.5,185.5C 179.5,187.167 179.5,188.833 179.5,190.5C 178.448,190.351 177.448,190.517 176.5,191C 177.884,197.983 174.884,201.983 167.5,203C 163.167,203.333 158.833,203.667 154.5,204C 159.102,205.122 163.768,205.622 168.5,205.5C 168.5,207.167 168.5,208.833 168.5,210.5C 141.823,214.192 115.156,218.025 88.5,222C 82.6553,223.138 77.1553,222.305 72,219.5C 71.077,217.966 70.577,216.299 70.5,214.5C 71.8021,206.458 73.8021,198.624 76.5,191C 75.8333,190.333 75.1667,189.667 74.5,189C 76.1341,188.506 77.8008,188.34 79.5,188.5C 78.6713,191.469 78.5046,194.469 79,197.5C 79.8725,194.382 81.0392,191.382 82.5,188.5C 81.3112,187.571 79.9778,187.238 78.5,187.5C 78.6602,185.801 78.4935,184.134 78,182.5C 77.5172,183.448 77.3505,184.448 77.5,185.5C 76.5,185.5 75.5,185.5 74.5,185.5C 76.2404,174.464 78.2404,163.464 80.5,152.5C 79.4287,148.76 80.0954,145.26 82.5,142C 82.0062,140.538 81.6728,139.038 81.5,137.5C 82.9534,126.826 84.4534,116.16 86,105.5C 88.1194,108.477 89.2861,108.144 89.5,104.5C 89.035,101.85 88.7017,99.1837 88.5,96.5C 89.7194,88.5192 90.7194,80.5192 91.5,72.5 Z M 80.5,169.5 C 81.5,169.5 82.5,169.5 83.5,169.5C 83.1667,171.5 82.8333,173.5 82.5,175.5C 81.5,175.5 80.5,175.5 79.5,175.5C 79.5172,173.435 79.8505,171.435 80.5,169.5 Z"/></g>
<g><path style="opacity:0.982" fill="#fcf75f" d="M 298.5,72.5 C 304.013,72.892 309.347,74.392 314.5,77C 317.923,79.6794 319.923,83.1794 320.5,87.5C 321.452,85.9547 321.785,84.288 321.5,82.5C 323.144,82.2865 324.644,82.6198 326,83.5C 327.608,88.8219 329.108,94.1553 330.5,99.5C 331.167,99.5 331.5,99.8333 331.5,100.5C 332.343,105.536 333.343,110.536 334.5,115.5C 335.615,123.526 336.949,131.526 338.5,139.5C 338.363,146.005 338.363,152.672 338.5,159.5C 339.552,159.351 340.552,159.517 341.5,160C 340.209,163.455 340.209,166.955 341.5,170.5C 349.655,153.512 359.322,137.512 370.5,122.5C 371.274,121.289 372.107,121.289 373,122.5C 378.02,117.198 377.687,116.531 372,120.5C 371.333,119.833 371.333,119.167 372,118.5C 378.5,111.333 385,104.167 391.5,97C 392.833,96.3333 394.167,96.3333 395.5,97C 398.017,99.3494 400.35,101.849 402.5,104.5C 400.025,108.142 397.358,111.642 394.5,115C 396.134,115.494 397.801,115.66 399.5,115.5C 401.317,109.677 404.984,105.343 410.5,102.5C 411.695,106.426 412.195,110.426 412,114.5C 409.665,116.4 407.498,118.4 405.5,120.5C 397.437,128.736 390.27,137.736 384,147.5C 371.754,170.327 359.254,192.994 346.5,215.5C 343.518,216.332 340.518,216.499 337.5,216C 335.081,217.509 334.081,219.675 334.5,222.5C 321.118,223.297 315.951,217.297 319,204.5C 318.333,205.167 317.667,205.833 317,206.5C 316.722,210.194 316.722,213.861 317,217.5C 315.301,218.406 313.467,218.739 311.5,218.5C 311.706,215.505 311.04,212.838 309.5,210.5C 309.869,208.559 310.536,206.725 311.5,205C 309.071,204.549 308.904,203.715 311,202.5C 311.637,172.415 310.303,142.415 307,112.5C 306.238,105.178 304.405,98.178 301.5,91.5C 299.351,89.2267 299.018,86.5601 300.5,83.5C 300.263,80.4452 299.263,77.7785 297.5,75.5C 297.263,74.209 297.596,73.209 298.5,72.5 Z M 331.5,100.5 C 334.059,100.39 336.392,101.056 338.5,102.5C 337.3,106.992 335.966,111.326 334.5,115.5C 333.343,110.536 332.343,105.536 331.5,100.5 Z"/></g>
<g><path style="opacity:0.787" fill="#513245" d="M 297.5,75.5 C 299.263,77.7785 300.263,80.4452 300.5,83.5C 299.018,86.5601 299.351,89.2267 301.5,91.5C 299.139,91.3259 296.806,90.9926 294.5,90.5C 295.025,85.4004 296.025,80.4004 297.5,75.5 Z"/></g>
<g><path style="opacity:1" fill="#ece55d" d="M 384.5,95.5 C 386.028,95.5173 386.528,96.184 386,97.5C 383.651,100.017 381.151,102.35 378.5,104.5C 377.479,103.998 377.312,103.332 378,102.5C 379.694,99.6424 381.861,97.309 384.5,95.5 Z"/></g>
<g><path style="opacity:1" fill="#573946" d="M 406.5,108.5 C 407.239,108.369 407.906,108.536 408.5,109C 406.963,110.11 406.297,111.61 406.5,113.5C 405.325,113.719 404.325,113.386 403.5,112.5C 404.524,111.148 405.524,109.815 406.5,108.5 Z"/></g>
<g><path style="opacity:1" fill="#e7df5c" d="M 372.5,108.5 C 373.465,109.721 373.298,111.054 372,112.5C 367,118.833 362,125.167 357,131.5C 357.799,127.559 359.466,123.893 362,120.5C 365.336,116.332 368.836,112.332 372.5,108.5 Z"/></g>
<g><path style="opacity:1" fill="#5b3f47" d="M 387.5,119.5 C 389.225,119.843 389.725,120.843 389,122.5C 387.333,124.5 385.667,126.5 384,128.5C 384.812,125.466 385.979,122.466 387.5,119.5 Z"/></g>
<g><path style="opacity:0.963" fill="#4e2e45" d="M 405.5,120.5 C 394.041,162.878 382.375,205.211 370.5,247.5C 345.769,249.081 321.436,253.081 297.5,259.5C 301.497,243.173 305.497,226.839 309.5,210.5C 311.04,212.838 311.706,215.505 311.5,218.5C 313.467,218.739 315.301,218.406 317,217.5C 316.722,213.861 316.722,210.194 317,206.5C 317.667,205.833 318.333,205.167 319,204.5C 315.951,217.297 321.118,223.297 334.5,222.5C 334.081,219.675 335.081,217.509 337.5,216C 340.518,216.499 343.518,216.332 346.5,215.5C 359.254,192.994 371.754,170.327 384,147.5C 390.27,137.736 397.437,128.736 405.5,120.5 Z"/></g>
<g><path style="opacity:1" fill="#e0d85b" d="M 349.5,145.5 C 349.575,142.794 349.908,140.127 350.5,137.5C 351.5,137.5 352.5,137.5 353.5,137.5C 353.662,139.527 353.495,141.527 353,143.5C 352.184,144.823 351.017,145.489 349.5,145.5 Z"/></g>
<g><path style="opacity:0.579" fill="#fefa5f" d="M 465.5,146.5 C 467.83,151.818 470.163,157.151 472.5,162.5C 472.101,164.197 471.601,165.863 471,167.5C 469.989,168.337 468.822,168.67 467.5,168.5C 468.063,161.746 467.063,155.246 464.5,149C 464.743,148.098 465.077,147.265 465.5,146.5 Z"/></g>
<g><path style="opacity:1" fill="#d3ca58" d="M 349.5,145.5 C 348.428,148.63 346.594,151.296 344,153.5C 343.333,152.833 343.333,152.167 344,151.5C 345.617,149.237 347.45,147.237 349.5,145.5 Z"/></g>
<g><path style="opacity:0.667" fill="#fefa5f" d="M 140.5,155.5 C 141.833,155.5 143.167,155.5 144.5,155.5C 144.5,156.5 144.5,157.5 144.5,158.5C 132.572,160.145 120.739,161.145 109,161.5C 108.51,160.207 108.343,158.873 108.5,157.5C 112.332,157.223 116.165,156.89 120,156.5C 122.379,156.654 124.546,157.32 126.5,158.5C 131.291,157.491 135.957,156.491 140.5,155.5 Z"/></g>
<g><path style="opacity:0.638" fill="#fefa5f" d="M 471.5,175.5 C 472.497,175.47 473.164,175.97 473.5,177C 476.833,186.333 480.167,195.667 483.5,205C 483.37,206.059 482.87,206.892 482,207.5C 475.594,197.782 472.094,187.116 471.5,175.5 Z"/></g>
<g><path style="opacity:0.981" fill="#2f5651" d="M 265.5,177.5 C 265.5,178.5 265.5,179.5 265.5,180.5C 256.447,182.244 247.447,184.244 238.5,186.5C 237.228,185.954 235.894,185.621 234.5,185.5C 213.724,191.08 213.391,190.246 233.5,183C 243.871,180.93 254.205,178.763 264.5,176.5C 265.107,176.624 265.44,176.957 265.5,177.5 Z"/></g>
<g><path style="opacity:1" fill="#71584a" d="M 356.5,177.5 C 357.239,177.369 357.906,177.536 358.5,178C 357,179.5 355.5,181 354,182.5C 354.058,180.565 354.891,178.898 356.5,177.5 Z"/></g>
<g><path style="opacity:1" fill="#593b46" d="M 348.5,188.5 C 349.376,188.369 350.043,188.702 350.5,189.5C 349.547,192.701 348.214,195.701 346.5,198.5C 345.28,198.113 344.613,197.28 344.5,196C 345.644,193.367 346.977,190.867 348.5,188.5 Z"/></g>
<g><path style="opacity:0.837" fill="#2d5550" d="M 187.5,200.5 C 190.917,202.891 192.25,206.225 191.5,210.5C 190.127,210.343 188.793,210.51 187.5,211C 186.295,212.376 184.962,213.542 183.5,214.5C 184.837,209.817 186.17,205.15 187.5,200.5 Z"/></g>
<g><path style="opacity:0.978" fill="#1f4e50" d="M 280.5,202.5 C 287.915,205.108 295.582,207.274 303.5,209C 304.081,209.893 304.415,210.893 304.5,212C 300.234,228.563 295.734,245.063 291,261.5C 277.736,266.047 265.57,272.547 254.5,281C 252.966,281.923 251.299,282.423 249.5,282.5C 223.478,275.771 197.478,268.937 171.5,262C 171.043,261.586 170.709,261.086 170.5,260.5C 174.856,245.721 179.19,231.054 183.5,216.5C 186.922,219.258 189.922,222.591 192.5,226.5C 194.765,227.647 197.098,227.814 199.5,227C 225.512,215.58 252.512,207.413 280.5,202.5 Z"/></g>
<g><path style="opacity:0.625" fill="#fefa5f" d="M 484.5,211.5 C 488.428,214.638 491.428,218.638 493.5,223.5C 493,224.5 492.5,225.5 492,226.5C 487.505,222.524 485.005,217.524 484.5,211.5 Z"/></g>
</svg>
